<?xml version="1.0" encoding="UTF-8"?>
<svg width="400" height="400" viewBox="0 0 400 400" fill="none" xmlns="http://www.w3.org/2000/svg">
  <!-- Background -->
  <rect width="400" height="400" fill="#E0F2FE"/>
  
  <!-- Sun -->
  <circle cx="350" cy="50" r="40" fill="#FCD34D"/>
  <circle cx="350" cy="50" r="35" fill="#FEF3C7"/>
  
  <!-- Clouds -->
  <path d="M50 80C50 80 70 60 90 80C110 100 130 80 150 80C170 80 190 100 210 80C230 60 250 80 250 80" stroke="#93C5FD" stroke-width="8" fill="none"/>
  <path d="M100 120C100 120 120 100 140 120C160 140 180 120 200 120C220 120 240 140 260 120C280 100 300 120 300 120" stroke="#93C5FD" stroke-width="8" fill="none"/>
  
  <!-- Castle -->
  <!-- Main Tower -->
  <rect x="150" y="100" width="100" height="200" fill="#94A3B8"/>
  <path d="M150 100L200 50L250 100" fill="#94A3B8"/>
  
  <!-- Side Towers -->
  <rect x="100" y="150" width="50" height="150" fill="#94A3B8"/>
  <path d="M100 150L125 100L150 150" fill="#94A3B8"/>
  
  <rect x="250" y="150" width="50" height="150" fill="#94A3B8"/>
  <path d="M250 150L275 100L300 150" fill="#94A3B8"/>
  
  <!-- Windows -->
  <rect x="175" y="150" width="20" height="30" fill="#E0F2FE"/>
  <rect x="175" y="200" width="20" height="30" fill="#E0F2FE"/>
  <rect x="175" y="250" width="20" height="30" fill="#E0F2FE"/>
  
  <rect x="115" y="200" width="20" height="30" fill="#E0F2FE"/>
  <rect x="265" y="200" width="20" height="30" fill="#E0F2FE"/>
  
  <!-- Door -->
  <rect x="180" y="300" width="40" height="60" fill="#92400E"/>
  <circle cx="210" cy="330" r="5" fill="#FCD34D"/>
  
  <!-- Flags -->
  <path d="M200 50L200 20" stroke="#94A3B8" stroke-width="2"/>
  <path d="M200 20L220 30L200 40L200 20" fill="#F87171"/>
  
  <path d="M125 100L125 70" stroke="#94A3B8" stroke-width="2"/>
  <path d="M125 70L145 80L125 90L125 70" fill="#F87171"/>
  
  <path d="M275 100L275 70" stroke="#94A3B8" stroke-width="2"/>
  <path d="M275 70L295 80L275 90L275 70" fill="#F87171"/>
  
  <!-- Moat -->
  <path d="M80 350C80 350 100 340 200 340C300 340 320 350 320 350" stroke="#60A5FA" stroke-width="20" stroke-linecap="round"/>
  
  <!-- Bridge -->
  <path d="M180 340L220 340" stroke="#92400E" stroke-width="10"/>
  <path d="M170 350L230 350" stroke="#92400E" stroke-width="10"/>
  <path d="M160 360L240 360" stroke="#92400E" stroke-width="10"/>
  
  <!-- Trees -->
  <path d="M50 300L50 200" stroke="#92400E" stroke-width="10"/>
  <path d="M30 200C30 200 50 150 70 200" stroke="#22C55E" stroke-width="20" stroke-linecap="round"/>
  <path d="M30 250C30 250 50 200 70 250" stroke="#22C55E" stroke-width="20" stroke-linecap="round"/>
  
  <path d="M350 300L350 200" stroke="#92400E" stroke-width="10"/>
  <path d="M330 200C330 200 350 150 370 200" stroke="#22C55E" stroke-width="20" stroke-linecap="round"/>
  <path d="M330 250C330 250 350 200 370 250" stroke="#22C55E" stroke-width="20" stroke-linecap="round"/>
</svg> 