<?xml version="1.0" encoding="UTF-8"?>
<svg width="400" height="400" viewBox="0 0 400 400" fill="none" xmlns="http://www.w3.org/2000/svg">
  <!-- Background -->
  <rect width="400" height="400" fill="#FEF3C7"/>
  
  <!-- Sun -->
  <circle cx="350" cy="50" r="40" fill="#FCD34D"/>
  <circle cx="350" cy="50" r="35" fill="#FEF3C7"/>
  
  <!-- Clouds -->
  <path d="M50 80C50 80 70 60 90 80C110 100 130 80 150 80C170 80 190 100 210 80C230 60 250 80 250 80" stroke="#93C5FD" stroke-width="8" fill="none"/>
  <path d="M100 120C100 120 120 100 140 120C160 140 180 120 200 120C220 120 240 140 260 120C280 100 300 120 300 120" stroke="#93C5FD" stroke-width="8" fill="none"/>
  
  <!-- Circus Tent -->
  <path d="M100 100L200 50L300 100L300 300L100 300L100 100Z" fill="#F87171"/>
  <path d="M100 100L200 50L300 100" stroke="#EF4444" stroke-width="4"/>
  <path d="M100 100L100 300" stroke="#EF4444" stroke-width="4"/>
  <path d="M300 100L300 300" stroke="#EF4444" stroke-width="4"/>
  
  <!-- Tent Stripes -->
  <path d="M120 100L120 300" stroke="#FCD34D" stroke-width="20"/>
  <path d="M160 100L160 300" stroke="#FCD34D" stroke-width="20"/>
  <path d="M200 100L200 300" stroke="#FCD34D" stroke-width="20"/>
  <path d="M240 100L240 300" stroke="#FCD34D" stroke-width="20"/>
  <path d="M280 100L280 300" stroke="#FCD34D" stroke-width="20"/>
  
  <!-- Tent Entrance -->
  <path d="M180 300L220 300L220 250L180 250L180 300Z" fill="#FEF3C7"/>
  
  <!-- Circus Ring -->
  <circle cx="200" cy="200" r="80" stroke="#94A3B8" stroke-width="4" fill="none"/>
  <circle cx="200" cy="200" r="70" stroke="#94A3B8" stroke-width="2" fill="none"/>
  
  <!-- Clown -->
  <circle cx="200" cy="150" r="20" fill="#FCD34D"/>
  <path d="M190 140L210 140" stroke="#1E293B" stroke-width="2"/>
  <path d="M190 160L210 160" stroke="#1E293B" stroke-width="2"/>
  <path d="M200 140L200 160" stroke="#1E293B" stroke-width="2"/>
  
  <!-- Balloon -->
  <path d="M250 100C250 100 260 90 270 100C280 110 270 120 260 120C250 120 240 110 250 100Z" fill="#F87171"/>
  <path d="M260 120L260 150" stroke="#F87171" stroke-width="2"/>
  
  <!-- Elephant -->
  <path d="M150 250C150 250 140 240 130 250C120 260 130 270 140 270C150 270 160 260 150 250Z" fill="#94A3B8"/>
  <path d="M130 250L120 245" stroke="#94A3B8" stroke-width="4"/>
  <path d="M130 250L120 255" stroke="#94A3B8" stroke-width="4"/>
  
  <!-- Trapeze -->
  <path d="M100 100L300 100" stroke="#92400E" stroke-width="4"/>
  <path d="M150 100L150 150" stroke="#92400E" stroke-width="2"/>
  <path d="M250 100L250 150" stroke="#92400E" stroke-width="2"/>
  <path d="M150 150L250 150" stroke="#92400E" stroke-width="2"/>
  
  <!-- Acrobat -->
  <path d="M200 150L200 180" stroke="#1E293B" stroke-width="2"/>
  <circle cx="200" cy="180" r="10" fill="#1E293B"/>
  <path d="M190 180L210 180" stroke="#1E293B" stroke-width="2"/>
  
  <!-- Stars -->
  <path d="M50 200L60 190L70 200L60 210L50 200" fill="#FCD34D"/>
  <path d="M350 200L360 190L370 200L360 210L350 200" fill="#FCD34D"/>
  <path d="M200 50L210 40L220 50L210 60L200 50" fill="#FCD34D"/>
  
  <!-- Ground -->
  <path d="M0 350C0 350 100 340 200 350C300 360 400 350 400 350" stroke="#22C55E" stroke-width="20" stroke-linecap="round"/>
</svg> 