<?xml version="1.0" encoding="UTF-8"?>
<svg width="400" height="400" viewBox="0 0 400 400" fill="none" xmlns="http://www.w3.org/2000/svg">
  <rect width="400" height="400" fill="#FEF3C7"/>
  <circle cx="200" cy="200" r="150" fill="#FCD34D"/>
  <path d="M200 100C177.909 100 160 117.909 160 140C160 162.091 177.909 180 200 180C222.091 180 240 162.091 240 140C240 117.909 222.091 100 200 100Z" fill="#F59E0B"/>
  <path d="M140 220C140 197.909 157.909 180 180 180H220C242.091 180 260 197.909 260 220V260C260 282.091 242.091 300 220 300H180C157.909 300 140 282.091 140 260V220Z" fill="#F59E0B"/>
</svg> 