<?xml version="1.0" encoding="UTF-8"?>
<svg width="400" height="400" viewBox="0 0 400 400" fill="none" xmlns="http://www.w3.org/2000/svg">
  <!-- Background -->
  <rect width="400" height="400" fill="#DCFCE7"/>
  
  <!-- Sun -->
  <circle cx="350" cy="50" r="40" fill="#FCD34D"/>
  <circle cx="350" cy="50" r="35" fill="#FEF3C7"/>
  
  <!-- Clouds -->
  <path d="M50 80C50 80 70 60 90 80C110 100 130 80 150 80C170 80 190 100 210 80C230 60 250 80 250 80" stroke="#93C5FD" stroke-width="8" fill="none"/>
  <path d="M100 120C100 120 120 100 140 120C160 140 180 120 200 120C220 120 240 140 260 120C280 100 300 120 300 120" stroke="#93C5FD" stroke-width="8" fill="none"/>
  
  <!-- Trees -->
  <!-- Left Tree -->
  <path d="M100 400L100 200" stroke="#92400E" stroke-width="20"/>
  <path d="M50 200C50 200 100 150 150 200" stroke="#22C55E" stroke-width="40" stroke-linecap="round"/>
  <path d="M50 250C50 250 100 200 150 250" stroke="#22C55E" stroke-width="40" stroke-linecap="round"/>
  <path d="M50 300C50 300 100 250 150 300" stroke="#22C55E" stroke-width="40" stroke-linecap="round"/>
  
  <!-- Right Tree -->
  <path d="M300 400L300 200" stroke="#92400E" stroke-width="20"/>
  <path d="M250 200C250 200 300 150 350 200" stroke="#22C55E" stroke-width="40" stroke-linecap="round"/>
  <path d="M250 250C250 250 300 200 350 250" stroke="#22C55E" stroke-width="40" stroke-linecap="round"/>
  <path d="M250 300C250 300 300 250 350 300" stroke="#22C55E" stroke-width="40" stroke-linecap="round"/>
  
  <!-- Center Tree -->
  <path d="M200 400L200 150" stroke="#92400E" stroke-width="20"/>
  <path d="M150 150C150 150 200 100 250 150" stroke="#22C55E" stroke-width="40" stroke-linecap="round"/>
  <path d="M150 200C150 200 200 150 250 200" stroke="#22C55E" stroke-width="40" stroke-linecap="round"/>
  <path d="M150 250C150 250 200 200 250 250" stroke="#22C55E" stroke-width="40" stroke-linecap="round"/>
  
  <!-- Animals -->
  <!-- Squirrel -->
  <path d="M150 350C150 350 140 340 130 350C120 360 130 370 140 370C150 370 160 360 150 350Z" fill="#92400E"/>
  <path d="M130 350L120 345" stroke="#92400E" stroke-width="2"/>
  <path d="M130 350L120 355" stroke="#92400E" stroke-width="2"/>
  
  <!-- Bird -->
  <path d="M250 100C250 100 240 90 230 100C220 110 230 120 240 120C250 120 260 110 250 100Z" fill="#FCD34D"/>
  <path d="M230 100L220 95" stroke="#FCD34D" stroke-width="2"/>
  <path d="M230 100L220 105" stroke="#FCD34D" stroke-width="2"/>
  
  <!-- Flowers -->
  <circle cx="180" cy="380" r="5" fill="#F87171"/>
  <path d="M180 385L180 395" stroke="#22C55E" stroke-width="2"/>
  <path d="M175 390L185 390" stroke="#22C55E" stroke-width="2"/>
  
  <circle cx="220" cy="380" r="5" fill="#FCD34D"/>
  <path d="M220 385L220 395" stroke="#22C55E" stroke-width="2"/>
  <path d="M215 390L225 390" stroke="#22C55E" stroke-width="2"/>
  
  <!-- Mushrooms -->
  <path d="M120 380C120 380 110 370 120 360C130 350 140 360 140 370C140 380 130 390 120 380Z" fill="#F87171"/>
  <path d="M120 370L120 380" stroke="#92400E" stroke-width="4"/>
  
  <path d="M280 380C280 380 270 370 280 360C290 350 300 360 300 370C300 380 290 390 280 380Z" fill="#F87171"/>
  <path d="M280 370L280 380" stroke="#92400E" stroke-width="4"/>
</svg> 