<?xml version="1.0" encoding="UTF-8"?>
<svg width="400" height="400" viewBox="0 0 400 400" fill="none" xmlns="http://www.w3.org/2000/svg">
  <!-- Background -->
  <rect width="400" height="400" fill="#DCFCE7"/>
  
  <!-- Sun -->
  <circle cx="350" cy="50" r="40" fill="#FCD34D"/>
  <circle cx="350" cy="50" r="35" fill="#FEF3C7"/>
  
  <!-- Clouds -->
  <path d="M50 80C50 80 70 60 90 80C110 100 130 80 150 80C170 80 190 100 210 80C230 60 250 80 250 80" stroke="#93C5FD" stroke-width="8" fill="none"/>
  <path d="M100 120C100 120 120 100 140 120C160 140 180 120 200 120C220 120 240 140 260 120C280 100 300 120 300 120" stroke="#93C5FD" stroke-width="8" fill="none"/>
  
  <!-- Garden Path -->
  <path d="M200 400L200 200" stroke="#A3A3A3" stroke-width="40" stroke-linecap="round"/>
  
  <!-- Flowers -->
  <!-- Left Side -->
  <circle cx="100" cy="300" r="20" fill="#FCD34D"/>
  <path d="M100 320L100 360" stroke="#22C55E" stroke-width="4"/>
  <path d="M80 340L120 340" stroke="#22C55E" stroke-width="4"/>
  
  <circle cx="150" cy="250" r="15" fill="#F87171"/>
  <path d="M150 265L150 300" stroke="#22C55E" stroke-width="4"/>
  <path d="M135 280L165 280" stroke="#22C55E" stroke-width="4"/>
  
  <!-- Right Side -->
  <circle cx="300" cy="300" r="20" fill="#FCD34D"/>
  <path d="M300 320L300 360" stroke="#22C55E" stroke-width="4"/>
  <path d="M280 340L320 340" stroke="#22C55E" stroke-width="4"/>
  
  <circle cx="250" cy="250" r="15" fill="#F87171"/>
  <path d="M250 265L250 300" stroke="#22C55E" stroke-width="4"/>
  <path d="M235 280L265 280" stroke="#22C55E" stroke-width="4"/>
  
  <!-- Watering Can -->
  <path d="M180 180L220 180L210 220L190 220L180 180Z" fill="#94A3B8"/>
  <path d="M190 220L210 220L220 260L180 260L190 220Z" fill="#64748B"/>
  <path d="M200 180L200 160" stroke="#94A3B8" stroke-width="8" stroke-linecap="round"/>
  
  <!-- Water Drops -->
  <path d="M200 260C200 260 190 270 200 280C210 270 200 260 200 260Z" fill="#93C5FD"/>
  <path d="M190 270C190 270 180 280 190 290C200 280 190 270 190 270Z" fill="#93C5FD"/>
  <path d="M210 270C210 270 200 280 210 290C220 280 210 270 210 270Z" fill="#93C5FD"/>
</svg> 