<?xml version="1.0" encoding="UTF-8"?>
<svg width="400" height="400" viewBox="0 0 400 400" fill="none" xmlns="http://www.w3.org/2000/svg">
  <!-- Background -->
  <rect width="400" height="400" fill="#E0F2FE"/>
  
  <!-- Sun -->
  <circle cx="350" cy="50" r="40" fill="#FCD34D"/>
  <circle cx="350" cy="50" r="35" fill="#FEF3C7"/>
  
  <!-- Clouds -->
  <path d="M50 80C50 80 70 60 90 80C110 100 130 80 150 80C170 80 190 100 210 80C230 60 250 80 250 80" stroke="#93C5FD" stroke-width="8" fill="none"/>
  <path d="M100 120C100 120 120 100 140 120C160 140 180 120 200 120C220 120 240 140 260 120C280 100 300 120 300 120" stroke="#93C5FD" stroke-width="8" fill="none"/>
  
  <!-- Mountains -->
  <!-- Back Mountain -->
  <path d="M0 400L100 200L200 400" fill="#94A3B8"/>
  <path d="M200 400L300 150L400 400" fill="#94A3B8"/>
  
  <!-- Middle Mountain -->
  <path d="M50 400L150 250L250 400" fill="#64748B"/>
  <path d="M250 400L350 200L400 400" fill="#64748B"/>
  
  <!-- Front Mountain -->
  <path d="M100 400L200 300L300 400" fill="#475569"/>
  
  <!-- Snow Caps -->
  <path d="M100 200L150 250L100 250" fill="#F8FAFC"/>
  <path d="M300 150L350 200L300 200" fill="#F8FAFC"/>
  <path d="M150 250L200 300L150 300" fill="#F8FAFC"/>
  
  <!-- Trees -->
  <path d="M50 350L50 300" stroke="#92400E" stroke-width="5"/>
  <path d="M30 300C30 300 50 280 70 300" stroke="#22C55E" stroke-width="10" stroke-linecap="round"/>
  
  <path d="M350 350L350 300" stroke="#92400E" stroke-width="5"/>
  <path d="M330 300C330 300 350 280 370 300" stroke="#22C55E" stroke-width="10" stroke-linecap="round"/>
  
  <!-- Climber -->
  <path d="M200 250L200 270" stroke="#1E293B" stroke-width="4"/>
  <circle cx="200" cy="250" r="10" fill="#1E293B"/>
  <path d="M190 270L210 270" stroke="#1E293B" stroke-width="4"/>
  <path d="M200 270L200 290" stroke="#1E293B" stroke-width="4"/>
  
  <!-- Rope -->
  <path d="M200 250C200 250 180 230 160 250" stroke="#1E293B" stroke-width="2" stroke-dasharray="4 4"/>
  
  <!-- Ice Pick -->
  <path d="M190 270L180 260" stroke="#94A3B8" stroke-width="2"/>
  <path d="M210 270L220 260" stroke="#94A3B8" stroke-width="2"/>
  
  <!-- Backpack -->
  <path d="M190 270L210 270L210 280L190 280L190 270" fill="#F87171"/>
  
  <!-- Flag -->
  <path d="M200 250L200 230" stroke="#1E293B" stroke-width="2"/>
  <path d="M200 230L210 225L200 220L200 230" fill="#F87171"/>
</svg> 