<?xml version="1.0" encoding="UTF-8"?>
<svg width="400" height="400" viewBox="0 0 400 400" fill="none" xmlns="http://www.w3.org/2000/svg">
  <!-- Background -->
  <rect width="400" height="400" fill="#E0F2FE"/>
  
  <!-- Sun -->
  <circle cx="350" cy="50" r="40" fill="#FCD34D"/>
  <circle cx="350" cy="50" r="35" fill="#FEF3C7"/>
  
  <!-- Clouds -->
  <path d="M50 80C50 80 70 60 90 80C110 100 130 80 150 80C170 80 190 100 210 80C230 60 250 80 250 80" stroke="#93C5FD" stroke-width="8" fill="none"/>
  <path d="M100 120C100 120 120 100 140 120C160 140 180 120 200 120C220 120 240 140 260 120C280 100 300 120 300 120" stroke="#93C5FD" stroke-width="8" fill="none"/>
  
  <!-- Ocean -->
  <path d="M0 200C0 200 100 180 200 200C300 220 400 200 400 200L400 400L0 400L0 200Z" fill="#60A5FA"/>
  
  <!-- Waves -->
  <path d="M0 220C50 210 100 230 150 220C200 210 250 230 300 220C350 210 400 230 400 220" stroke="#93C5FD" stroke-width="4" fill="none"/>
  <path d="M0 260C50 250 100 270 150 260C200 250 250 270 300 260C350 250 400 270 400 260" stroke="#93C5FD" stroke-width="4" fill="none"/>
  <path d="M0 300C50 290 100 310 150 300C200 290 250 310 300 300C350 290 400 310 400 300" stroke="#93C5FD" stroke-width="4" fill="none"/>
  
  <!-- Submarine -->
  <path d="M200 150L180 200L220 200L200 150Z" fill="#94A3B8"/>
  <path d="M180 200L220 200L240 250L160 250L180 200Z" fill="#64748B"/>
  <circle cx="200" cy="180" r="15" fill="#E0F2FE"/>
  <circle cx="200" cy="180" r="10" fill="#93C5FD"/>
  <path d="M160 250L240 250L220 300L180 300L160 250Z" fill="#94A3B8"/>
  
  <!-- Fish -->
  <path d="M100 250C100 250 90 240 80 250C70 260 80 270 90 270C100 270 110 260 100 250Z" fill="#F87171"/>
  <path d="M80 250L70 245" stroke="#F87171" stroke-width="2"/>
  <path d="M80 250L70 255" stroke="#F87171" stroke-width="2"/>
  
  <path d="M300 280C300 280 290 270 280 280C270 290 280 300 290 300C300 300 310 290 300 280Z" fill="#34D399"/>
  <path d="M280 280L270 275" stroke="#34D399" stroke-width="2"/>
  <path d="M280 280L270 285" stroke="#34D399" stroke-width="2"/>
  
  <!-- Coral -->
  <path d="M50 350C50 350 40 340 50 330C60 320 70 330 70 340C70 350 60 360 50 350Z" fill="#F87171"/>
  <path d="M350 330C350 330 340 320 350 310C360 300 370 310 370 320C370 330 360 340 350 330Z" fill="#F87171"/>
  
  <!-- Bubbles -->
  <circle cx="190" cy="230" r="3" fill="#E0F2FE"/>
  <circle cx="210" cy="240" r="2" fill="#E0F2FE"/>
  <circle cx="200" cy="250" r="3" fill="#E0F2FE"/>
  <circle cx="190" cy="260" r="2" fill="#E0F2FE"/>
  <circle cx="210" cy="270" r="3" fill="#E0F2FE"/>
</svg> 