<?xml version="1.0" encoding="UTF-8"?>
<svg width="400" height="400" viewBox="0 0 400 400" fill="none" xmlns="http://www.w3.org/2000/svg">
  <!-- Background -->
  <rect width="400" height="400" fill="#E0F2FE"/>
  
  <!-- Sun -->
  <circle cx="350" cy="50" r="40" fill="#FCD34D"/>
  <circle cx="350" cy="50" r="35" fill="#FEF3C7"/>
  
  <!-- Clouds -->
  <path d="M50 80C50 80 70 60 90 80C110 100 130 80 150 80C170 80 190 100 210 80C230 60 250 80 250 80" stroke="#93C5FD" stroke-width="8" fill="none"/>
  <path d="M100 120C100 120 120 100 140 120C160 140 180 120 200 120C220 120 240 140 260 120C280 100 300 120 300 120" stroke="#93C5FD" stroke-width="8" fill="none"/>
  
  <!-- Robot -->
  <!-- Head -->
  <rect x="150" y="100" width="100" height="100" rx="10" fill="#94A3B8"/>
  <rect x="170" y="120" width="60" height="40" rx="5" fill="#E0F2FE"/>
  
  <!-- Eyes -->
  <circle cx="180" cy="140" r="10" fill="#1E293B"/>
  <circle cx="220" cy="140" r="10" fill="#1E293B"/>
  
  <!-- Antenna -->
  <path d="M200 100L200 80" stroke="#94A3B8" stroke-width="4"/>
  <circle cx="200" cy="80" r="5" fill="#FCD34D"/>
  
  <!-- Body -->
  <rect x="170" y="200" width="60" height="80" fill="#94A3B8"/>
  
  <!-- Buttons -->
  <circle cx="200" cy="220" r="5" fill="#F87171"/>
  <circle cx="200" cy="240" r="5" fill="#FCD34D"/>
  <circle cx="200" cy="260" r="5" fill="#34D399"/>
  
  <!-- Arms -->
  <rect x="120" y="220" width="50" height="10" rx="5" fill="#94A3B8"/>
  <rect x="230" y="220" width="50" height="10" rx="5" fill="#94A3B8"/>
  
  <!-- Hands -->
  <circle cx="120" cy="225" r="10" fill="#94A3B8"/>
  <circle cx="280" cy="225" r="10" fill="#94A3B8"/>
  
  <!-- Legs -->
  <rect x="180" y="280" width="20" height="60" fill="#94A3B8"/>
  <rect x="200" y="280" width="20" height="60" fill="#94A3B8"/>
  
  <!-- Feet -->
  <rect x="170" y="340" width="30" height="10" rx="5" fill="#94A3B8"/>
  <rect x="200" y="340" width="30" height="10" rx="5" fill="#94A3B8"/>
  
  <!-- Gears -->
  <circle cx="100" cy="200" r="20" fill="#94A3B8"/>
  <circle cx="100" cy="200" r="15" fill="#E0F2FE"/>
  <path d="M100 180L100 220" stroke="#94A3B8" stroke-width="4"/>
  <path d="M80 200L120 200" stroke="#94A3B8" stroke-width="4"/>
  <path d="M85 185L115 215" stroke="#94A3B8" stroke-width="4"/>
  <path d="M85 215L115 185" stroke="#94A3B8" stroke-width="4"/>
  
  <circle cx="300" cy="200" r="20" fill="#94A3B8"/>
  <circle cx="300" cy="200" r="15" fill="#E0F2FE"/>
  <path d="M300 180L300 220" stroke="#94A3B8" stroke-width="4"/>
  <path d="M280 200L320 200" stroke="#94A3B8" stroke-width="4"/>
  <path d="M285 185L315 215" stroke="#94A3B8" stroke-width="4"/>
  <path d="M285 215L315 185" stroke="#94A3B8" stroke-width="4"/>
  
  <!-- Circuit Lines -->
  <path d="M170 120L150 120" stroke="#FCD34D" stroke-width="2" stroke-dasharray="4 4"/>
  <path d="M230 120L250 120" stroke="#FCD34D" stroke-width="2" stroke-dasharray="4 4"/>
  <path d="M170 160L150 160" stroke="#FCD34D" stroke-width="2" stroke-dasharray="4 4"/>
  <path d="M230 160L250 160" stroke="#FCD34D" stroke-width="2" stroke-dasharray="4 4"/>
  
  <!-- Ground -->
  <path d="M0 380C0 380 100 370 200 380C300 390 400 380 400 380" stroke="#94A3B8" stroke-width="20" stroke-linecap="round"/>
</svg> 