<?xml version="1.0" encoding="UTF-8"?>
<svg width="400" height="400" viewBox="0 0 400 400" fill="none" xmlns="http://www.w3.org/2000/svg">
  <!-- Background -->
  <rect width="400" height="400" fill="#FEF3C7"/>
  
  <!-- Map Border -->
  <rect x="20" y="20" width="360" height="360" rx="10" stroke="#92400E" stroke-width="4" fill="#FCD34D"/>
  
  <!-- Map Texture -->
  <path d="M40 40L360 40L360 360L40 360L40 40Z" stroke="#92400E" stroke-width="2" stroke-dasharray="4 4"/>
  
  <!-- Compass -->
  <circle cx="320" cy="80" r="30" fill="#FEF3C7" stroke="#92400E" stroke-width="2"/>
  <path d="M320 50L320 110" stroke="#92400E" stroke-width="2"/>
  <path d="M290 80L350 80" stroke="#92400E" stroke-width="2"/>
  <text x="315" y="75" fill="#92400E" font-size="12">N</text>
  <text x="315" y="105" fill="#92400E" font-size="12">S</text>
  <text x="285" y="85" fill="#92400E" font-size="12">W</text>
  <text x="345" y="85" fill="#92400E" font-size="12">E</text>
  
  <!-- Landmarks -->
  <!-- Mountains -->
  <path d="M100 200L150 150L200 200" stroke="#92400E" stroke-width="2" fill="#FCD34D"/>
  <path d="M250 200L300 150L350 200" stroke="#92400E" stroke-width="2" fill="#FCD34D"/>
  
  <!-- Trees -->
  <path d="M80 250L80 300" stroke="#92400E" stroke-width="2"/>
  <path d="M60 270L100 270" stroke="#92400E" stroke-width="2"/>
  <path d="M70 290L90 290" stroke="#92400E" stroke-width="2"/>
  
  <path d="M320 250L320 300" stroke="#92400E" stroke-width="2"/>
  <path d="M300 270L340 270" stroke="#92400E" stroke-width="2"/>
  <path d="M310 290L330 290" stroke="#92400E" stroke-width="2"/>
  
  <!-- River -->
  <path d="M50 150C100 180 150 160 200 180C250 200 300 180 350 150" stroke="#60A5FA" stroke-width="4" fill="none"/>
  
  <!-- X Marks the Spot -->
  <path d="M200 250L220 270" stroke="#EF4444" stroke-width="4"/>
  <path d="M220 250L200 270" stroke="#EF4444" stroke-width="4"/>
  
  <!-- Footsteps -->
  <path d="M100 100L110 110" stroke="#92400E" stroke-width="2"/>
  <path d="M120 120L130 130" stroke="#92400E" stroke-width="2"/>
  <path d="M140 140L150 150" stroke="#92400E" stroke-width="2"/>
  <path d="M160 160L170 170" stroke="#92400E" stroke-width="2"/>
  <path d="M180 180L190 190" stroke="#92400E" stroke-width="2"/>
  
  <!-- Treasure Chest -->
  <rect x="180" y="260" width="40" height="30" fill="#92400E"/>
  <rect x="170" y="270" width="60" height="10" fill="#92400E"/>
  <path d="M190 260L210 260" stroke="#FCD34D" stroke-width="2"/>
  <path d="M195 265L205 265" stroke="#FCD34D" stroke-width="2"/>
  <path d="M190 270L210 270" stroke="#FCD34D" stroke-width="2"/>
</svg> 